<svg font-family="sans-serif" viewBox="0 0 753 362" xmlns:xlink="http://www.w3.org/1999/xlink" text-decoration="none" font-style="normal" width="753px" xmlns="http://www.w3.org/2000/svg" font-size="15" version="1.1" font-weight="normal" height="362px"><title>新竹市的雲量類別</title><defs><clipPath id="plot-sample-bounds-2"><rect y="0" x="75.8" height="340" width="601.3"></rect></clipPath><clipPath id="plot-sample-bounds-scaled-2"><rect y="0" x="758.3" height="3400" width="6013.5"></rect></clipPath></defs><g transform="scale(0.1)"><path fill-opacity="1.000" stroke-width="10" stroke="#95b5df" d="M758,3400l17,0l16,0l17,0l16,0l17,0l16,0l17,0l16,0l17,0l16,0l17,0l17,0l16,0l17,0l16,0l17,0l16,0l17,0l16,0l17,0l16,0l17,0l16,0l17,0l16,0l17,0l16,0l17,0l16,0l17,0l16,0l17,0l16,0l17,0l16,0l17,0l17,0l16,0l17,0l16,0l17,0l16,0l17,0l16,0l17,0l16,0l17,0l16,0l17,0l16,0l17,0l16,0l17,0l16,0l17,0l16,0l17,0l16,0l17,0l16,0l17,0l17,0l16,0l17,0l16,0l17,0l16,0l17,0l16,0l17,0l16,0l17,0l16,0l17,0l16,0l17,0l16,0l17,0l16,0l17,0l16,0l17,0l16,0l17,0l17,0l16,0l17,0l16,0l17,0l16,0l17,0l16,0l17,0l16,0l17,0l16,0l17,0l16,0l17,0l16,0l17,0l16,0l17,0l16,0l17,0l16,0l17,0l16,0l17,0l17,0l16,0l17,0l16,0l17,0l16,0l17,0l16,0l17,0l16,0l17,0l16,0l17,0l16,0l17,0l16,0l17,0l16,0l17,0l16,0l17,0l16,0l17,0l16,0l17,0l17,0l16,0l17,0l16,0l17,0l16,0l17,0l16,0l17,0l16,0l17,0l16,0l17,0l16,0l17,0l16,0l17,0l16,0l17,0l16,0l17,0l16,0l17,0l17,0l16,0l17,0l16,0l17,0l16,0l17,0l16,0l17,0l16,0l17,0l16,0l17,0l16,0l17,0l16,0l17,0l16,0l17,0l16,0l17,0l16,0l17,0l16,0l17,0l17,0l16,0l17,0l16,0l17,0l16,0l17,0l16,0l17,0l16,0l17,0l16,0l17,0l16,0l17,0l16,0l17,0l16,0l17,0l16,0l17,0l16,0l17,0l16,0l17,0l17,0l16,0l17,0l16,0l17,0l16,0l17,0l16,0l17,0l16,0l17,0l16,0l17,0l16,0l17,0l16,0l17,0l16,0l17,0l16,0l17,0l16,0l17,0l17,0l16,0l17,0l16,0l17,0l16,0l17,0l16,0l17,0l16,0l17,0l16,0l17,0l16,0l17,0l16,0l17,0l16,0l17,0l16,0l17,0l16,0l17,0l16,0l17,0l17,0l16,0l17,0l16,0l17,0l16,0l17,0l16,0l17,0l16,0l17,0l16,0l17,0l16,0l17,0l16,0l17,0l16,0l17,0l16,0l17,0l16,0l17,0l16,0l17,0l17,0l16,0l17,0l16,0l17,0l16,0l17,0l16,0l17,0l16,0l17,0l16,0l17,0l16,0l17,0l16,0l17,0l16,0l17,0l16,0l17,0l16,0l17,0l17,0l16,0l17,0l16,0l17,0l16,0l17,0l16,0l17,0l16,0l17,0l16,0l17,0l16,0l17,0l16,0l17,0l16,0l17,0l16,0l17,0l16,0l17,0l16,0l17,0l17,0l16,0l17,0l16,0l17,0l16,0l17,0l16,0l17,0l16,0l17,0l16,0l17,0l16,0l17,0l16,0l17,0l16,0l17,0l16,0l17,0l16,0l17,0l16,0l17,0l17,0l16,0l17,0l16,0l17,0l16,0l17,0l16,0l17,0l16,0l17,0l0,-644l-17,-2l-16,4l-17,-5l-16,12l-17,11l-16,7l-17,3l-16,1l-17,5l-16,6l-17,-2l-17,1l-16,5l-17,2l-16,-16l-17,8l-16,2l-17,5l-16,-7l-17,-12l-16,-5l-17,2l-16,10l-17,4l-16,4l-17,13l-16,6l-17,5l-16,-2l-17,8l-16,8l-17,-8l-16,-1l-17,5l-16,-5l-17,-6l-17,-7l-16,-18l-17,-7l-16,-19l-17,-14l-16,3l-17,11l-16,8l-17,7l-16,9l-17,-9l-16,-2l-17,0l-16,-5l-17,4l-16,-4l-17,-14l-16,-7l-17,-9l-16,-15l-17,-17l-16,-14l-17,-14l-16,-14l-17,-11l-17,-5l-16,0l-17,-8l-16,-13l-17,-16l-16,-8l-17,10l-16,17l-17,11l-16,15l-17,16l-16,2l-17,-16l-16,-11l-17,-14l-16,-6l-17,-1l-16,-4l-17,-5l-16,8l-17,-2l-16,7l-17,15l-17,12l-16,17l-17,19l-16,9l-17,-3l-16,3l-17,12l-16,9l-17,10l-16,15l-17,19l-16,23l-17,23l-16,13l-17,2l-16,6l-17,12l-16,11l-17,6l-16,10l-17,25l-16,23l-17,25l-16,23l-17,20l-17,13l-16,14l-17,9l-16,11l-17,14l-16,9l-17,1l-16,3l-17,8l-16,11l-17,23l-16,20l-17,10l-16,10l-17,9l-16,9l-17,6l-16,9l-17,13l-16,9l-17,8l-16,4l-17,4l-16,2l-17,3l-17,4l-16,-1l-17,2l-16,0l-17,0l-16,5l-17,8l-16,5l-17,2l-16,-3l-17,-4l-16,0l-17,1l-16,3l-17,4l-16,5l-17,4l-16,1l-17,3l-16,4l-17,1l-16,-3l-17,-5l-17,-6l-16,1l-17,2l-16,3l-17,-2l-16,-3l-17,1l-16,3l-17,5l-16,0l-17,-4l-16,-3l-17,-6l-16,0l-17,1l-16,2l-17,7l-16,7l-17,3l-16,5l-17,9l-16,2l-17,-5l-16,-4l-17,0l-17,3l-16,1l-17,-3l-16,-3l-17,0l-16,3l-17,0l-16,-6l-17,0l-16,1l-17,3l-16,-5l-17,-8l-16,-8l-17,-3l-16,1l-17,0l-16,-3l-17,-3l-16,-5l-17,-6l-16,-2l-17,-11l-16,-15l-17,-9l-17,-7l-16,-8l-17,-9l-16,-4l-17,-7l-16,-9l-17,-13l-16,-9l-17,-8l-16,-14l-17,-15l-16,-15l-17,-7l-16,-8l-17,-11l-16,-14l-17,-12l-16,1l-17,0l-16,2l-17,-4l-16,-3l-17,-3l-17,0l-16,-9l-17,-5l-16,-2l-17,-4l-16,-10l-17,-1l-16,-2l-17,-11l-16,-7l-17,-4l-16,-5l-17,-14l-16,-9l-17,-2l-16,-3l-17,-2l-16,-4l-17,2l-16,-3l-17,-4l-16,1l-17,-6l-16,-2l-17,-9l-17,-10l-16,-7l-17,-3l-16,-9l-17,-7l-16,-8l-17,-18l-16,-11l-17,-9l-16,-14l-17,-3l-16,10l-17,-4l-16,-5l-17,0l-16,-1l-17,-5l-16,-1l-17,9l-16,-2l-17,-5l-16,-11l-17,-12l-16,-8l-17,-6l-17,-2l-16,-12l-17,-17l-16,-10l-17,-22l-16,-23l-17,-18l-16,-13l-17,-11l-16,-4l-17,-15l-16,-4l-17,3l-16,9l-17,3l-16,0l-17,-14l-16,-10l-17,5l-16,6l-17,5l-16,-7l-17,2l-17,-4l-16,0l-17,-3l-16,-4l-17,9l-16,4l-17,9l-16,3l-17,8l-16,5l-17,8l-16,17l-17,27l-16,33l-17,20l-16,6l-17,2l-16,1l-17,8l-16,3l-17,16l-16,7l-17,-7l-16,-1l-17,6l-17,-2l-16,4l-17,-10l-16,-10l-17,-5l-16,-6l-17,-7l-16,-1l-17,3l-16,6l-17,-10l-16,-4l-17,-6l-16,2l-17,-5l-16,6l-17,-1l-16,-12l-17,-12l-16,-15l-17,-10l-16,16l-17,-1l-16,1l-17,-1l-17,4l-16,-2l-17,0l-16,9l-17,-2l-16,-2l-17,4l-16,-9l-17,5l-16,5l-17,17Z" fill="#95b5df"></path><path fill-opacity="1.000" stroke-width="10" stroke="#b1c4dd" d="M758,2749l17,-17l16,-5l17,-5l16,9l17,-4l16,2l17,2l16,-9l17,0l16,2l17,-4l17,1l16,-1l17,1l16,-16l17,10l16,15l17,12l16,12l17,1l16,-6l17,5l16,-2l17,6l16,4l17,10l16,-6l17,-3l16,1l17,7l16,6l17,5l16,10l17,10l16,-4l17,2l17,-6l16,1l17,7l16,-7l17,-16l16,-3l17,-8l16,-1l17,-2l16,-6l17,-20l16,-33l17,-27l16,-17l17,-8l16,-5l17,-8l16,-3l17,-9l16,-4l17,-9l16,4l17,3l16,0l17,4l17,-2l16,7l17,-5l16,-6l17,-5l16,10l17,14l16,0l17,-3l16,-9l17,-3l16,4l17,15l16,4l17,11l16,13l17,18l16,23l17,22l16,10l17,17l16,12l17,2l17,6l16,8l17,12l16,11l17,5l16,2l17,-9l16,1l17,5l16,1l17,0l16,5l17,4l16,-10l17,3l16,14l17,9l16,11l17,18l16,8l17,7l16,9l17,3l16,7l17,10l17,9l16,2l17,6l16,-1l17,4l16,3l17,-2l16,4l17,2l16,3l17,2l16,9l17,14l16,5l17,4l16,7l17,11l16,2l17,1l16,10l17,4l16,2l17,5l16,9l17,0l17,3l16,3l17,4l16,-2l17,0l16,-1l17,12l16,14l17,11l16,8l17,7l16,15l17,15l16,14l17,8l16,9l17,13l16,9l17,7l16,4l17,9l16,8l17,7l17,9l16,15l17,11l16,2l17,6l16,5l17,3l16,3l17,0l16,-1l17,3l16,8l17,8l16,5l17,-3l16,-1l17,0l16,6l17,0l16,-3l17,0l16,3l17,3l16,-1l17,-3l17,0l16,4l17,5l16,-2l17,-9l16,-5l17,-3l16,-7l17,-7l16,-2l17,-1l16,0l17,6l16,3l17,4l16,0l17,-5l16,-3l17,-1l16,3l17,2l16,-3l17,-2l16,-1l17,6l17,5l16,3l17,-1l16,-4l17,-3l16,-1l17,-4l16,-5l17,-4l16,-3l17,-1l16,0l17,4l16,3l17,-2l16,-5l17,-8l16,-5l17,0l16,0l17,-2l16,1l17,-4l17,-3l16,-2l17,-4l16,-4l17,-8l16,-9l17,-13l16,-9l17,-6l16,-9l17,-9l16,-10l17,-10l16,-20l17,-23l16,-11l17,-8l16,-3l17,-1l16,-9l17,-14l16,-11l17,-9l16,-14l17,-13l17,-20l16,-23l17,-25l16,-23l17,-25l16,-10l17,-6l16,-11l17,-12l16,-6l17,-2l16,-13l17,-23l16,-23l17,-19l16,-15l17,-10l16,-9l17,-12l16,-3l17,3l16,-9l17,-19l16,-17l17,-12l17,-15l16,-7l17,2l16,-8l17,5l16,4l17,1l16,6l17,14l16,11l17,16l16,-2l17,-16l16,-15l17,-11l16,-17l17,-10l16,8l17,16l16,13l17,8l16,0l17,5l17,11l16,14l17,14l16,14l17,17l16,15l17,9l16,7l17,14l16,4l17,-4l16,5l17,0l16,2l17,9l16,-9l17,-7l16,-8l17,-11l16,-3l17,14l16,19l17,7l16,18l17,7l17,6l16,5l17,-5l16,1l17,8l16,-8l17,-8l16,2l17,-5l16,-6l17,-13l16,-4l17,-4l16,-10l17,-2l16,5l17,12l16,7l17,-5l16,-2l17,-8l16,16l17,-2l16,-5l17,-1l17,2l16,-6l17,-5l16,-1l17,-3l16,-7l17,-11l16,-12l17,5l16,-4l17,2l0,-690l-17,2l-16,-5l-17,-8l-16,0l-17,11l-16,4l-17,3l-16,-5l-17,4l-16,0l-17,-10l-17,-5l-16,4l-17,4l-16,-8l-17,-1l-16,-10l-17,4l-16,-9l-17,-9l-16,-5l-17,4l-16,4l-17,-3l-16,15l-17,7l-16,2l-17,3l-16,-2l-17,19l-16,16l-17,-9l-16,-7l-17,-2l-16,-1l-17,-5l-17,3l-16,-15l-17,-9l-16,-22l-17,-10l-16,3l-17,17l-16,8l-17,21l-16,11l-17,-3l-16,12l-17,-1l-16,-7l-17,0l-16,-13l-17,-18l-16,-4l-17,-6l-16,-18l-17,-6l-16,-14l-17,-20l-16,-13l-17,-18l-17,-11l-16,5l-17,-3l-16,-12l-17,-15l-16,-8l-17,-1l-16,10l-17,16l-16,21l-17,17l-16,5l-17,-19l-16,-6l-17,-13l-16,-6l-17,4l-16,3l-17,4l-16,22l-17,7l-16,18l-17,30l-17,26l-16,35l-17,31l-16,15l-17,7l-16,15l-17,18l-16,15l-17,25l-16,21l-17,28l-16,33l-17,32l-16,23l-17,15l-16,20l-17,25l-16,20l-17,20l-16,20l-17,40l-16,35l-17,32l-16,39l-17,29l-17,13l-16,14l-17,11l-16,16l-17,28l-16,16l-17,7l-16,-2l-17,3l-16,10l-17,32l-16,27l-17,16l-16,19l-17,11l-16,12l-17,18l-16,18l-17,17l-16,14l-17,11l-16,8l-17,4l-16,4l-17,4l-17,3l-16,-2l-17,-2l-16,-2l-17,0l-16,3l-17,10l-16,13l-17,-2l-16,-1l-17,-7l-16,-5l-17,-2l-16,7l-17,14l-16,16l-17,7l-16,6l-17,0l-16,5l-17,2l-16,-1l-17,-14l-17,-8l-16,2l-17,3l-16,6l-17,-3l-16,-1l-17,0l-16,-1l-17,10l-16,5l-17,-2l-16,-3l-17,-6l-16,2l-17,7l-16,3l-17,15l-16,15l-17,8l-16,15l-17,14l-16,3l-17,-4l-16,-4l-17,1l-17,3l-16,9l-17,-3l-16,-3l-17,-1l-16,10l-17,1l-16,-5l-17,3l-16,2l-17,7l-16,-8l-17,-10l-16,-5l-17,-3l-16,4l-17,1l-16,-5l-17,-4l-16,-13l-17,-10l-16,-4l-17,-12l-16,-19l-17,-12l-17,-14l-16,-15l-17,-13l-16,-10l-17,-10l-16,-16l-17,-21l-16,-17l-17,-15l-16,-24l-17,-27l-16,-18l-17,-12l-16,-12l-17,-23l-16,-18l-17,-16l-16,-1l-17,-1l-16,-1l-17,-6l-16,-6l-17,-5l-17,-3l-16,-14l-17,-7l-16,-9l-17,-11l-16,-16l-17,-10l-16,-6l-17,-18l-16,-10l-17,-9l-16,-9l-17,-17l-16,-12l-17,-6l-16,-6l-17,-5l-16,-2l-17,4l-16,-13l-17,-10l-16,-6l-17,-7l-16,-7l-17,-17l-17,-13l-16,-15l-17,-7l-16,-16l-17,-13l-16,-8l-17,-15l-16,-13l-17,-17l-16,-14l-17,-7l-16,6l-17,-8l-16,-10l-17,-6l-16,-5l-17,-5l-16,-1l-17,3l-16,-7l-17,-10l-16,-19l-17,-12l-16,-13l-17,-7l-17,-1l-16,-13l-17,-21l-16,-13l-17,-25l-16,-20l-17,-23l-16,-16l-17,-12l-16,-7l-17,-20l-16,-10l-17,-1l-16,9l-17,8l-16,-4l-17,-17l-16,-14l-17,5l-16,6l-17,9l-16,-7l-17,-6l-17,-8l-16,0l-17,-5l-16,-1l-17,11l-16,3l-17,10l-16,3l-17,4l-16,1l-17,13l-16,21l-17,26l-16,32l-17,22l-16,10l-17,-1l-16,0l-17,4l-16,-4l-17,20l-16,8l-17,-7l-16,2l-17,9l-17,-2l-16,2l-17,-12l-16,-13l-17,-15l-16,-9l-17,-10l-16,-4l-17,14l-16,7l-17,-8l-16,-10l-17,-10l-16,-1l-17,-1l-16,7l-17,-5l-16,-10l-17,-21l-16,-21l-17,-22l-16,-1l-17,-2l-16,1l-17,1l-17,7l-16,-15l-17,-7l-16,-1l-17,-9l-16,-5l-17,-6l-16,-15l-17,-2l-16,4l-17,24Z" fill="#b1c4dd"></path><path fill-opacity="1.000" stroke-width="10" stroke="#c9d0d9" d="M758,2063l17,-24l16,-4l17,2l16,15l17,6l16,5l17,9l16,1l17,7l16,15l17,-7l17,-1l16,-1l17,2l16,1l17,22l16,21l17,21l16,10l17,5l16,-7l17,1l16,1l17,10l16,10l17,8l16,-7l17,-14l16,4l17,10l16,9l17,15l16,13l17,12l16,-2l17,2l17,-9l16,-2l17,7l16,-8l17,-20l16,4l17,-4l16,0l17,1l16,-10l17,-22l16,-32l17,-26l16,-21l17,-13l16,-1l17,-4l16,-3l17,-10l16,-3l17,-11l16,1l17,5l16,0l17,8l17,6l16,7l17,-9l16,-6l17,-5l16,14l17,17l16,4l17,-8l16,-9l17,1l16,10l17,20l16,7l17,12l16,16l17,23l16,20l17,25l16,13l17,21l16,13l17,1l17,7l16,13l17,12l16,19l17,10l16,7l17,-3l16,1l17,5l16,5l17,6l16,10l17,8l16,-6l17,7l16,14l17,17l16,13l17,15l16,8l17,13l16,16l17,7l16,15l17,13l17,17l16,7l17,7l16,6l17,10l16,13l17,-4l16,2l17,5l16,6l17,6l16,12l17,17l16,9l17,9l16,10l17,18l16,6l17,10l16,16l17,11l16,9l17,7l16,14l17,3l17,5l16,6l17,6l16,1l17,1l16,1l17,16l16,18l17,23l16,12l17,12l16,18l17,27l16,24l17,15l16,17l17,21l16,16l17,10l16,10l17,13l16,15l17,14l17,12l16,19l17,12l16,4l17,10l16,13l17,4l16,5l17,-1l16,-4l17,3l16,5l17,10l16,8l17,-7l16,-2l17,-3l16,5l17,-1l16,-10l17,1l16,3l17,3l16,-9l17,-3l17,-1l16,4l17,4l16,-3l17,-14l16,-15l17,-8l16,-15l17,-15l16,-3l17,-7l16,-2l17,6l16,3l17,2l16,-5l17,-10l16,1l17,0l16,1l17,3l16,-6l17,-3l16,-2l17,8l17,14l16,1l17,-2l16,-5l17,0l16,-6l17,-7l16,-16l17,-14l16,-7l17,2l16,5l17,7l16,1l17,2l16,-13l17,-10l16,-3l17,0l16,2l17,2l16,2l17,-3l17,-4l16,-4l17,-4l16,-8l17,-11l16,-14l17,-17l16,-18l17,-18l16,-12l17,-11l16,-19l17,-16l16,-27l17,-32l16,-10l17,-3l16,2l17,-7l16,-16l17,-28l16,-16l17,-11l16,-14l17,-13l17,-29l16,-39l17,-32l16,-35l17,-40l16,-20l17,-20l16,-20l17,-25l16,-20l17,-15l16,-23l17,-32l16,-33l17,-28l16,-21l17,-25l16,-15l17,-18l16,-15l17,-7l16,-15l17,-31l16,-35l17,-26l17,-30l16,-18l17,-7l16,-22l17,-4l16,-3l17,-4l16,6l17,13l16,6l17,19l16,-5l17,-17l16,-21l17,-16l16,-10l17,1l16,8l17,15l16,12l17,3l16,-5l17,11l17,18l16,13l17,20l16,14l17,6l16,18l17,6l16,4l17,18l16,13l17,0l16,7l17,1l16,-12l17,3l16,-11l17,-21l16,-8l17,-17l16,-3l17,10l16,22l17,9l16,15l17,-3l17,5l16,1l17,2l16,7l17,9l16,-16l17,-19l16,2l17,-3l16,-2l17,-7l16,-15l17,3l16,-4l17,-4l16,5l17,9l16,9l17,-4l16,10l17,1l16,8l17,-4l16,-4l17,5l17,10l16,0l17,-4l16,5l17,-3l16,-4l17,-11l16,0l17,8l16,5l17,-2l0,-686l-17,4l-16,-6l-17,-6l-16,-3l-17,10l-16,-2l-17,1l-16,-9l-17,0l-16,5l-17,-11l-17,0l-16,6l-17,-1l-16,1l-17,-9l-16,-16l-17,-1l-16,-8l-17,-4l-16,-5l-17,1l-16,4l-17,-16l-16,13l-17,-1l-16,3l-17,-3l-16,5l-17,15l-16,9l-17,-8l-16,1l-17,4l-16,3l-17,-3l-17,6l-16,-8l-17,2l-16,-7l-17,-5l-16,7l-17,15l-16,13l-17,31l-16,13l-17,13l-16,19l-17,8l-16,1l-17,0l-16,0l-17,-9l-16,-6l-17,7l-16,-8l-17,-2l-16,-1l-17,-10l-16,-5l-17,-5l-17,-4l-16,14l-17,-7l-16,-11l-17,-9l-16,-2l-17,-1l-16,13l-17,18l-16,24l-17,19l-16,7l-17,-8l-16,-5l-17,-8l-16,-1l-17,4l-16,10l-17,8l-16,23l-17,14l-16,19l-17,24l-17,38l-16,36l-17,29l-16,21l-17,5l-16,17l-17,22l-16,16l-17,29l-16,24l-17,33l-16,36l-17,30l-16,25l-17,19l-16,19l-17,23l-16,20l-17,24l-16,25l-17,36l-16,35l-17,34l-16,41l-17,36l-17,16l-16,18l-17,15l-16,17l-17,29l-16,24l-17,11l-16,2l-17,10l-16,12l-17,28l-16,24l-17,13l-16,18l-17,12l-16,10l-17,18l-16,20l-17,22l-16,16l-17,11l-16,13l-17,4l-16,-1l-17,2l-17,5l-16,-1l-17,3l-16,0l-17,-4l-16,-5l-17,8l-16,8l-17,1l-16,-5l-17,-5l-16,-8l-17,-3l-16,0l-17,10l-16,18l-17,11l-16,10l-17,1l-16,9l-17,3l-16,-2l-17,-17l-17,-7l-16,1l-17,-1l-16,5l-17,-5l-16,5l-17,5l-16,3l-17,10l-16,8l-17,0l-16,-5l-17,1l-16,7l-17,6l-16,8l-17,13l-16,25l-17,12l-16,20l-17,18l-16,13l-17,0l-16,-1l-17,6l-17,5l-16,18l-17,-2l-16,5l-17,1l-16,16l-17,1l-16,-1l-17,9l-16,7l-17,10l-16,-9l-17,-6l-16,-5l-17,-4l-16,6l-17,-3l-16,2l-17,-2l-16,-15l-17,-6l-16,-4l-17,-10l-16,-21l-17,-15l-17,-17l-16,-22l-17,-10l-16,-13l-17,-12l-16,-20l-17,-27l-16,-23l-17,-22l-16,-30l-17,-29l-16,-23l-17,-16l-16,-15l-17,-28l-16,-24l-17,-18l-16,-4l-17,-5l-16,-6l-17,-12l-16,-5l-17,-5l-17,-9l-16,-21l-17,-13l-16,-15l-17,-18l-16,-23l-17,-20l-16,-16l-17,-23l-16,-11l-17,-14l-16,-10l-17,-19l-16,-11l-17,-9l-16,-10l-17,-9l-16,-7l-17,1l-16,-13l-17,-15l-16,-15l-17,-12l-16,-17l-17,-26l-17,-17l-16,-14l-17,-7l-16,-18l-17,-20l-16,-12l-17,-17l-16,-14l-17,-17l-16,-16l-17,-12l-16,0l-17,-6l-16,-3l-17,-8l-16,-13l-17,-11l-16,-4l-17,-4l-16,-17l-17,-12l-16,-18l-17,-10l-16,-13l-17,-8l-17,-10l-16,-18l-17,-19l-16,-11l-17,-16l-16,-14l-17,-21l-16,-17l-17,-16l-16,-11l-17,-20l-16,-11l-17,-3l-16,3l-17,0l-16,-8l-17,-13l-16,-9l-17,-5l-16,-5l-17,0l-16,-5l-17,-5l-17,-13l-16,-2l-17,0l-16,-2l-17,5l-16,4l-17,4l-16,2l-17,6l-16,7l-17,8l-16,13l-17,17l-16,28l-17,11l-16,-2l-17,-7l-16,-6l-17,-2l-16,-10l-17,6l-16,1l-17,-4l-16,8l-17,1l-17,-8l-16,1l-17,-9l-16,-8l-17,-14l-16,-13l-17,-10l-16,-8l-17,10l-16,5l-17,-5l-16,-13l-17,0l-16,-5l-17,-6l-16,-3l-17,-11l-16,-6l-17,-23l-16,-27l-17,-17l-16,-6l-17,1l-16,6l-17,-1l-17,2l-16,-9l-17,-7l-16,3l-17,-14l-16,3l-17,-6l-16,-6l-17,-8l-16,6l-17,12Z" fill="#c9d0d9"></path><path fill-opacity="1.000" stroke-width="10" stroke="#acb0b6" d="M758,1374l17,-12l16,-6l17,8l16,6l17,6l16,-3l17,14l16,-3l17,7l16,9l17,-2l17,1l16,-6l17,-1l16,6l17,17l16,27l17,23l16,6l17,11l16,3l17,6l16,5l17,0l16,13l17,5l16,-5l17,-10l16,8l17,10l16,13l17,14l16,8l17,9l16,-1l17,8l17,-1l16,-8l17,4l16,-1l17,-6l16,10l17,2l16,6l17,7l16,2l17,-11l16,-28l17,-17l16,-13l17,-8l16,-7l17,-6l16,-2l17,-4l16,-4l17,-5l16,2l17,0l16,2l17,13l17,5l16,5l17,0l16,5l17,5l16,9l17,13l16,8l17,0l16,-3l17,3l16,11l17,20l16,11l17,16l16,17l17,21l16,14l17,16l16,11l17,19l16,18l17,10l17,8l16,13l17,10l16,18l17,12l16,17l17,4l16,4l17,11l16,13l17,8l16,3l17,6l16,0l17,12l16,16l17,17l16,14l17,17l16,12l17,20l16,18l17,7l16,14l17,17l17,26l16,17l17,12l16,15l17,15l16,13l17,-1l16,7l17,9l16,10l17,9l16,11l17,19l16,10l17,14l16,11l17,23l16,16l17,20l16,23l17,18l16,15l17,13l16,21l17,9l17,5l16,5l17,12l16,6l17,5l16,4l17,18l16,24l17,28l16,15l17,16l16,23l17,29l16,30l17,22l16,23l17,27l16,20l17,12l16,13l17,10l16,22l17,17l17,15l16,21l17,10l16,4l17,6l16,15l17,2l16,-2l17,3l16,-6l17,4l16,5l17,6l16,9l17,-10l16,-7l17,-9l16,1l17,-1l16,-16l17,-1l16,-5l17,2l16,-18l17,-5l17,-6l16,1l17,0l16,-13l17,-18l16,-20l17,-12l16,-25l17,-13l16,-8l17,-6l16,-7l17,-1l16,5l17,0l16,-8l17,-10l16,-3l17,-5l16,-5l17,5l16,-5l17,1l16,-1l17,7l17,17l16,2l17,-3l16,-9l17,-1l16,-10l17,-11l16,-18l17,-10l16,0l17,3l16,8l17,5l16,5l17,-1l16,-8l17,-8l16,5l17,4l16,0l17,-3l16,1l17,-5l17,-2l16,1l17,-4l16,-13l17,-11l16,-16l17,-22l16,-20l17,-18l16,-10l17,-12l16,-18l17,-13l16,-24l17,-28l16,-12l17,-10l16,-2l17,-11l16,-24l17,-29l16,-17l17,-15l16,-18l17,-16l17,-36l16,-41l17,-34l16,-35l17,-36l16,-25l17,-24l16,-20l17,-23l16,-19l17,-19l16,-25l17,-30l16,-36l17,-33l16,-24l17,-29l16,-16l17,-22l16,-17l17,-5l16,-21l17,-29l16,-36l17,-38l17,-24l16,-19l17,-14l16,-23l17,-8l16,-10l17,-4l16,1l17,8l16,5l17,8l16,-7l17,-19l16,-24l17,-18l16,-13l17,1l16,2l17,9l16,11l17,7l16,-14l17,4l17,5l16,5l17,10l16,1l17,2l16,8l17,-7l16,6l17,9l16,0l17,0l16,-1l17,-8l16,-19l17,-13l16,-13l17,-31l16,-13l17,-15l16,-7l17,5l16,7l17,-2l16,8l17,-6l17,3l16,-3l17,-4l16,-1l17,8l16,-9l17,-15l16,-5l17,3l16,-3l17,1l16,-13l17,16l16,-4l17,-1l16,5l17,4l16,8l17,1l16,16l17,9l16,-1l17,1l16,-6l17,0l17,11l16,-5l17,0l16,9l17,-1l16,2l17,-10l16,3l17,6l16,6l17,-4l0,-677l-17,1l-16,1l-17,0l-16,-1l-17,6l-16,-3l-17,9l-16,2l-17,2l-16,2l-17,2l-17,3l-16,-1l-17,0l-16,3l-17,2l-16,-4l-17,1l-16,1l-17,5l-16,0l-17,4l-16,2l-17,-1l-16,8l-17,-4l-16,5l-17,0l-16,11l-17,11l-16,7l-17,-1l-16,9l-17,7l-16,14l-17,7l-17,14l-16,1l-17,5l-16,9l-17,6l-16,11l-17,13l-16,17l-17,26l-16,13l-17,14l-16,15l-17,7l-16,7l-17,2l-16,4l-17,0l-16,1l-17,3l-16,-1l-17,10l-16,2l-17,3l-16,3l-17,2l-17,3l-16,14l-17,-7l-16,-3l-17,-11l-16,-6l-17,2l-16,13l-17,18l-16,11l-17,12l-16,5l-17,-6l-16,-2l-17,-11l-16,0l-17,1l-16,11l-17,11l-16,14l-17,14l-16,15l-17,14l-17,33l-16,28l-17,26l-16,13l-17,4l-16,14l-17,13l-16,14l-17,24l-16,21l-17,26l-16,25l-17,24l-16,26l-17,10l-16,12l-17,8l-16,19l-17,22l-16,25l-17,28l-16,29l-17,36l-16,33l-17,31l-17,8l-16,14l-17,19l-16,12l-17,15l-16,22l-17,9l-16,-1l-17,9l-16,9l-17,24l-16,19l-17,10l-16,11l-17,10l-16,9l-17,14l-16,19l-17,22l-16,10l-17,15l-16,13l-17,3l-16,1l-17,1l-17,3l-16,0l-17,-3l-16,-11l-17,-9l-16,-9l-17,9l-16,7l-17,-1l-16,-4l-17,1l-16,-9l-17,-2l-16,6l-17,6l-16,16l-17,10l-16,2l-17,-2l-16,11l-17,5l-16,-6l-17,-14l-17,-6l-16,0l-17,5l-16,4l-17,-5l-16,10l-17,8l-16,2l-17,6l-16,8l-17,10l-16,9l-17,4l-16,14l-17,9l-16,5l-17,9l-16,24l-17,15l-16,23l-17,25l-16,15l-17,4l-16,5l-17,11l-17,19l-16,34l-17,4l-16,9l-17,9l-16,23l-17,8l-16,5l-17,12l-16,11l-17,10l-16,-2l-17,-6l-16,3l-17,0l-16,13l-17,-2l-16,0l-17,6l-16,-9l-17,-2l-16,2l-17,-4l-16,-12l-17,-16l-17,-14l-16,-23l-17,-10l-16,-11l-17,-14l-16,-21l-17,-31l-16,-29l-17,-26l-16,-40l-17,-27l-16,-29l-17,-22l-16,-18l-17,-30l-16,-25l-17,-13l-16,-9l-17,-7l-16,-11l-17,-10l-16,-6l-17,-8l-17,-12l-16,-19l-17,-14l-16,-20l-17,-21l-16,-24l-17,-27l-16,-21l-17,-21l-16,-13l-17,-11l-16,-4l-17,-10l-16,-12l-17,-7l-16,-13l-17,-7l-16,-3l-17,0l-16,-10l-17,-8l-16,-25l-17,-19l-16,-22l-17,-30l-17,-19l-16,-15l-17,-10l-16,-18l-17,-26l-16,-16l-17,-13l-16,-21l-17,-19l-16,-12l-17,-13l-16,-2l-17,-2l-16,-2l-17,-10l-16,-17l-17,-14l-16,-12l-17,-16l-16,-17l-17,-14l-16,-14l-17,-12l-16,-12l-17,-16l-17,-18l-16,-23l-17,-10l-16,-10l-17,-10l-16,-5l-17,-13l-16,-15l-17,-22l-16,-17l-17,-19l-16,-11l-17,-13l-16,-4l-17,-8l-16,-16l-17,-14l-16,-6l-17,-10l-16,-7l-17,-7l-16,-9l-17,-10l-17,-16l-16,-3l-17,1l-16,0l-17,1l-16,-2l-17,1l-16,0l-17,12l-16,5l-17,0l-16,6l-17,6l-16,13l-17,2l-16,-8l-17,-7l-16,-8l-17,-6l-16,-7l-17,-5l-16,-3l-17,-3l-16,3l-17,0l-17,-11l-16,1l-17,-8l-16,0l-17,-5l-16,-10l-17,-7l-16,-4l-17,-5l-16,-5l-17,-8l-16,-4l-17,-3l-16,-9l-17,-13l-16,-5l-17,-8l-16,-9l-17,-11l-16,-14l-17,-7l-16,2l-17,3l-16,6l-17,2l-17,-6l-16,-1l-17,1l-16,7l-17,-6l-16,-1l-17,-3l-16,-5l-17,0l-16,-4l-17,-1Z" fill="#acb0b6"></path><path fill-opacity="1.000" stroke-width="10" stroke="#989ca1" d="M758,693l17,1l16,4l17,0l16,5l17,3l16,1l17,6l16,-7l17,-1l16,1l17,6l17,-2l16,-6l17,-3l16,-2l17,7l16,14l17,11l16,9l17,8l16,5l17,13l16,9l17,3l16,4l17,8l16,5l17,5l16,4l17,7l16,10l17,5l16,0l17,8l16,-1l17,11l17,0l16,-3l17,3l16,3l17,5l16,7l17,6l16,8l17,7l16,8l17,-2l16,-13l17,-6l16,-6l17,0l16,-5l17,-12l16,0l17,-1l16,2l17,-1l16,0l17,-1l16,3l17,16l17,10l16,9l17,7l16,7l17,10l16,6l17,14l16,16l17,8l16,4l17,13l16,11l17,19l16,17l17,22l16,15l17,13l16,5l17,10l16,10l17,10l16,23l17,18l17,16l16,12l17,12l16,14l17,14l16,17l17,16l16,12l17,14l16,17l17,10l16,2l17,2l16,2l17,13l16,12l17,19l16,21l17,13l16,16l17,26l16,18l17,10l16,15l17,19l17,30l16,22l17,19l16,25l17,8l16,10l17,0l16,3l17,7l16,13l17,7l16,12l17,10l16,4l17,11l16,13l17,21l16,21l17,27l16,24l17,21l16,20l17,14l16,19l17,12l17,8l16,6l17,10l16,11l17,7l16,9l17,13l16,25l17,30l16,18l17,22l16,29l17,27l16,40l17,26l16,29l17,31l16,21l17,14l16,11l17,10l16,23l17,14l17,16l16,12l17,4l16,-2l17,2l16,9l17,-6l16,0l17,2l16,-13l17,0l16,-3l17,6l16,2l17,-10l16,-11l17,-12l16,-5l17,-8l16,-23l17,-9l16,-9l17,-4l16,-34l17,-19l17,-11l16,-5l17,-4l16,-15l17,-25l16,-23l17,-15l16,-24l17,-9l16,-5l17,-9l16,-14l17,-4l16,-9l17,-10l16,-8l17,-6l16,-2l17,-8l16,-10l17,5l16,-4l17,-5l16,0l17,6l17,14l16,6l17,-5l16,-11l17,2l16,-2l17,-10l16,-16l17,-6l16,-6l17,2l16,9l17,-1l16,4l17,1l16,-7l17,-9l16,9l17,9l16,11l17,3l16,0l17,-3l17,-1l16,-1l17,-3l16,-13l17,-15l16,-10l17,-22l16,-19l17,-14l16,-9l17,-10l16,-11l17,-10l16,-19l17,-24l16,-9l17,-9l16,1l17,-9l16,-22l17,-15l16,-12l17,-19l16,-14l17,-8l17,-31l16,-33l17,-36l16,-29l17,-28l16,-25l17,-22l16,-19l17,-8l16,-12l17,-10l16,-26l17,-24l16,-25l17,-26l16,-21l17,-24l16,-14l17,-13l16,-14l17,-4l16,-13l17,-26l16,-28l17,-33l17,-14l16,-15l17,-14l16,-14l17,-11l16,-11l17,-1l16,0l17,11l16,2l17,6l16,-5l17,-12l16,-11l17,-18l16,-13l17,-2l16,6l17,11l16,3l17,7l16,-14l17,-3l17,-2l16,-3l17,-3l16,-2l17,-10l16,1l17,-3l16,-1l17,0l16,-4l17,-2l16,-7l17,-7l16,-15l17,-14l16,-13l17,-26l16,-17l17,-13l16,-11l17,-6l16,-9l17,-5l16,-1l17,-14l17,-7l16,-14l17,-7l16,-9l17,1l16,-7l17,-11l16,-11l17,0l16,-5l17,4l16,-8l17,1l16,-2l17,-4l16,0l17,-5l16,-1l17,-1l16,4l17,-2l16,-3l17,0l16,1l17,-3l17,-2l16,-2l17,-2l16,-2l17,-9l16,3l17,-6l16,1l17,0l16,-1l17,-1l0,-403l-17,0l-16,0l-17,0l-16,0l-17,0l-16,0l-17,0l-16,0l-17,0l-16,0l-17,0l-17,0l-16,0l-17,0l-16,0l-17,0l-16,0l-17,0l-16,0l-17,0l-16,0l-17,0l-16,0l-17,0l-16,0l-17,0l-16,0l-17,0l-16,0l-17,0l-16,0l-17,0l-16,1l-17,-1l-16,0l-17,0l-17,0l-16,0l-17,0l-16,0l-17,0l-16,0l-17,0l-16,0l-17,0l-16,0l-17,0l-16,0l-17,0l-16,0l-17,0l-16,0l-17,0l-16,0l-17,0l-16,0l-17,0l-16,0l-17,0l-16,0l-17,0l-17,0l-16,0l-17,0l-16,1l-17,-1l-16,0l-17,0l-16,0l-17,0l-16,0l-17,0l-16,0l-17,0l-16,0l-17,0l-16,0l-17,0l-16,0l-17,0l-16,0l-17,0l-16,0l-17,0l-17,0l-16,0l-17,0l-16,0l-17,0l-16,0l-17,0l-16,0l-17,0l-16,0l-17,1l-16,-1l-17,0l-16,0l-17,0l-16,0l-17,0l-16,0l-17,0l-16,0l-17,0l-16,0l-17,0l-16,0l-17,0l-17,0l-16,0l-17,0l-16,0l-17,0l-16,0l-17,0l-16,0l-17,0l-16,0l-17,0l-16,0l-17,0l-16,1l-17,-1l-16,0l-17,0l-16,0l-17,0l-16,0l-17,0l-16,0l-17,0l-16,0l-17,0l-17,0l-16,0l-17,0l-16,0l-17,0l-16,0l-17,0l-16,0l-17,0l-16,0l-17,0l-16,0l-17,0l-16,0l-17,0l-16,0l-17,0l-16,0l-17,0l-16,0l-17,0l-16,0l-17,0l-17,0l-16,0l-17,0l-16,0l-17,0l-16,0l-17,0l-16,0l-17,0l-16,0l-17,0l-16,0l-17,0l-16,0l-17,1l-16,-1l-17,0l-16,0l-17,0l-16,0l-17,0l-16,0l-17,0l-16,0l-17,0l-17,0l-16,0l-17,0l-16,0l-17,0l-16,0l-17,0l-16,0l-17,0l-16,0l-17,0l-16,0l-17,0l-16,1l-17,-1l-16,0l-17,0l-16,0l-17,1l-16,-1l-17,1l-16,-1l-17,0l-16,1l-17,-1l-17,0l-16,0l-17,0l-16,0l-17,0l-16,0l-17,0l-16,0l-17,0l-16,0l-17,0l-16,0l-17,0l-16,0l-17,0l-16,0l-17,0l-16,0l-17,0l-16,0l-17,1l-16,-1l-17,0l-17,0l-16,0l-17,0l-16,0l-17,0l-16,0l-17,0l-16,0l-17,0l-16,0l-17,0l-16,0l-17,0l-16,0l-17,0l-16,0l-17,0l-16,0l-17,0l-16,0l-17,0l-16,0l-17,0l-16,0l-17,0l-17,0l-16,0l-17,0l-16,0l-17,0l-16,0l-17,0l-16,0l-17,0l-16,0l-17,0l-16,0l-17,0l-16,0l-17,0l-16,0l-17,0l-16,0l-17,0l-16,0l-17,0l-16,0l-17,0l-16,0l-17,0l-17,0l-16,0l-17,0l-16,0l-17,0l-16,0l-17,0l-16,0l-17,0l-16,0l-17,0l-16,0l-17,0l-16,0l-17,0l-16,0l-17,0l-16,0l-17,0l-16,0l-17,0l-16,0l-17,0l-17,0l-16,0l-17,0l-16,0l-17,0l-16,0l-17,0l-16,0l-17,0l-16,0l-17,0l-16,0l-17,0l-16,0l-17,0l-16,0l-17,0l-16,0l-17,0l-16,0l-17,0l-16,0l-17,0l-16,0l-17,0l-17,0l-16,0l-17,0l-16,0l-17,0l-16,0l-17,0l-16,0l-17,0l-16,0l-17,0l-16,0l-17,0l-16,0l-17,0l-16,0l-17,0l-16,0l-17,0l-16,0l-17,0l-16,0l-17,0l-16,0l-17,0l-17,0l-16,0l-17,0l-16,0l-17,0l-16,0l-17,0l-16,0l-17,0l-16,0l-17,0Z" fill="#989ca1"></path><g clip-path="url(#plot-sample-bounds-scaled-2)"><path stroke-width="10" stroke="#606060" d="M758,1374l17,-12l16,-6l17,8l16,6l17,6l16,-3l17,14l16,-3l17,7l16,10l17,-2l17,1l16,-7l17,-1l16,6l17,16l16,28l17,22l16,7l17,11l16,4l17,5l16,5l17,0l16,13l17,5l16,-5l17,-10l16,8l17,10l16,13l17,14l16,8l17,9l16,-2l17,9l17,-2l16,-7l17,3l16,0l17,-6l16,10l17,2l16,7l17,6l16,2l17,-11l16,-27l17,-18l16,-13l17,-8l16,-8l17,-5l16,-2l17,-4l16,-3l17,-6l16,2l17,0l16,2l17,13l17,5l16,5l17,0l16,5l17,5l16,10l17,12l16,9l17,-1l16,-3l17,4l16,10l17,20l16,11l17,16l16,16l17,22l16,14l17,16l16,10l17,20l16,18l17,10l17,8l16,12l17,12l16,16l17,13l16,17l17,4l16,4l17,11l16,13l17,8l16,3l17,6l16,0l17,11l16,18l17,16l16,15l17,16l16,12l17,20l16,18l17,8l16,13l17,17l17,27l16,16l17,12l16,15l17,15l16,12l17,-1l16,8l17,10l16,10l17,7l16,12l17,18l16,12l17,13l16,11l17,22l16,17l17,20l16,24l17,17l16,15l17,12l16,21l17,10l17,4l16,6l17,11l16,6l17,6l16,4l17,17l16,26l17,27l16,15l17,16l16,23l17,29l16,31l17,21l16,24l17,27l16,19l17,12l16,13l17,10l16,21l17,18l17,15l16,21l17,10l16,4l17,6l16,15l17,2l16,-2l17,2l16,-6l17,4l16,6l17,6l16,10l17,-10l16,-8l17,-9l16,1l17,-1l16,-16l17,-2l16,-4l17,2l16,-17l17,-6l17,-6l16,0l17,2l16,-14l17,-17l16,-21l17,-12l16,-25l17,-14l16,-7l17,-6l16,-8l17,0l16,6l17,-2l16,-8l17,-10l16,-3l17,-4l16,-4l17,4l16,-4l17,0l16,0l17,6l17,17l16,2l17,-2l16,-10l17,-2l16,-9l17,-12l16,-17l17,-10l16,0l17,4l16,8l17,4l16,5l17,-2l16,-7l17,-8l16,6l17,4l16,0l17,-4l16,2l17,-6l17,-2l16,2l17,-4l16,-14l17,-11l16,-16l17,-21l16,-21l17,-18l16,-9l17,-14l16,-17l17,-12l16,-25l17,-29l16,-10l17,-10l16,-4l17,-9l16,-25l17,-28l16,-19l17,-14l16,-18l17,-15l17,-37l16,-41l17,-34l16,-35l17,-36l16,-25l17,-24l16,-20l17,-24l16,-19l17,-18l16,-25l17,-30l16,-35l17,-33l16,-26l17,-29l16,-15l17,-21l16,-18l17,-6l16,-20l17,-29l16,-36l17,-38l17,-25l16,-17l17,-16l16,-22l17,-8l16,-11l17,-2l16,0l17,8l16,5l17,8l16,-7l17,-18l16,-25l17,-18l16,-13l17,1l16,2l17,8l16,12l17,7l16,-14l17,4l17,5l16,5l17,10l16,1l17,1l16,9l17,-7l16,6l17,9l16,0l17,1l16,-2l17,-8l16,-20l17,-12l16,-13l17,-31l16,-13l17,-15l16,-7l17,4l16,8l17,-2l16,8l17,-7l17,4l16,-3l17,-5l16,-1l17,9l16,-9l17,-15l16,-5l17,3l16,-2l17,1l16,-14l17,17l16,-4l17,-1l16,4l17,4l16,8l17,1l16,17l17,8l16,-1l17,2l16,-6l17,-1l17,11l16,-5l17,0l16,9l17,-2l16,3l17,-10l16,2l17,7l16,6l17,-4" fill="none" stroke-opacity="1.0"></path></g></g><rect fill-opacity="0.376" stroke="none" y="5" x="504" height="25" width="174" fill="#95b5df"></rect><g><text y="24.5" text-anchor="middle" x="591">更晴朗</text></g><rect fill-opacity="0.376" stroke="none" y="5" x="75" height="25" width="186.9" fill="#95b5df"></rect><g><text y="24.5" text-anchor="middle" x="168.4">更晴朗</text></g><rect fill-opacity="0.376" stroke="none" y="5" x="261.9" height="25" width="242.1" fill="#989ca1"></rect><g><text y="24.5" text-anchor="middle" x="382.9">更多雲</text></g><g transform="scale(0.1)"></g><g stroke-width="1" stroke="#000" fill="none" stroke-opacity="0.2"><line x2="126.2" y1="30" x1="126.2" y2="345" stroke-opacity="0.2"></line><line x2="172.5" y1="30" x1="172.5" y2="345" stroke-opacity="0.2"></line><line x2="223.7" y1="30" x1="223.7" y2="345" stroke-opacity="0.2"></line><line x2="273.2" y1="30" x1="273.2" y2="345" stroke-opacity="0.2"></line><line x2="324.5" y1="30" x1="324.5" y2="345" stroke-opacity="0.2"></line><line x2="374" y1="30" x1="374" y2="345" stroke-opacity="0.2"></line><line x2="425.2" y1="30" x1="425.2" y2="345" stroke-opacity="0.2"></line><line x2="476.4" y1="30" x1="476.4" y2="345" stroke-opacity="0.2"></line><line x2="526" y1="30" x1="526" y2="345" stroke-opacity="0.2"></line><line x2="577.2" y1="30" x1="577.2" y2="345" stroke-opacity="0.2"></line><line x2="626.8" y1="30" x1="626.8" y2="345" stroke-opacity="0.2"></line><line x2="681" y1="340" x1="72" y2="340"></line><line x2="681" y1="309" x1="72" y2="309"></line><line x2="681" y1="278" x1="72" y2="278"></line><line x2="681" y1="247" x1="72" y2="247"></line><line x2="681" y1="216" x1="72" y2="216"></line><line x2="681" y1="185" x1="72" y2="185"></line><line x2="681" y1="154" x1="72" y2="154"></line><line x2="681" y1="123" x1="72" y2="123"></line><line x2="681" y1="92" x1="72" y2="92"></line><line x2="681" y1="61" x1="72" y2="61"></line><line x2="681" y1="30" x1="72" y2="30"></line></g><g><rect fill-opacity="0.004" y="30" x="75" height="310" width="51.2" fill="#fff"></rect><text stroke="none" y="356.5" text-anchor="middle" x="100.6">1月</text></g><g><rect fill-opacity="0.004" y="30" x="126.2" height="310" width="46.3" fill="#fff"></rect><text stroke="none" y="356.5" text-anchor="middle" x="149.3">2月</text></g><g><rect fill-opacity="0.004" y="30" x="172.5" height="310" width="51.2" fill="#fff"></rect><text stroke="none" y="356.5" text-anchor="middle" x="198.1">3月</text></g><g><rect fill-opacity="0.004" y="30" x="223.7" height="310" width="49.6" fill="#fff"></rect><text stroke="none" y="356.5" text-anchor="middle" x="248.5">4月</text></g><g><rect fill-opacity="0.004" y="30" x="273.2" height="310" width="51.2" fill="#fff"></rect><text stroke="none" y="356.5" text-anchor="middle" x="298.9">5月</text></g><g><rect fill-opacity="0.004" y="30" x="324.5" height="310" width="49.6" fill="#fff"></rect><text stroke="none" y="356.5" text-anchor="middle" x="349.2">6月</text></g><g><rect fill-opacity="0.004" y="30" x="374" height="310" width="51.2" fill="#fff"></rect><text stroke="none" y="356.5" text-anchor="middle" x="399.6">7月</text></g><g><rect fill-opacity="0.004" y="30" x="425.2" height="310" width="51.2" fill="#fff"></rect><text stroke="none" y="356.5" text-anchor="middle" x="450.8">8月</text></g><g><rect fill-opacity="0.004" y="30" x="476.4" height="310" width="49.6" fill="#fff"></rect><text stroke="none" y="356.5" text-anchor="middle" x="501.2">9月</text></g><g><rect fill-opacity="0.004" y="30" x="526" height="310" width="51.2" fill="#fff"></rect><text stroke="none" y="356.5" text-anchor="middle" x="551.6">10月</text></g><g><rect fill-opacity="0.004" y="30" x="577.2" height="310" width="49.6" fill="#fff"></rect><text stroke="none" y="356.5" text-anchor="middle" x="602">11月</text></g><g><rect fill-opacity="0.004" y="30" x="626.8" height="310" width="51.2" fill="#fff"></rect><text stroke="none" y="356.5" text-anchor="middle" x="652.4">12月</text></g><g stroke="none" fill="#666"><text y="345.2" text-anchor="end" x="71">0%</text><text y="345.2" x="682">100%</text><text y="314.2" text-anchor="end" x="71">10%</text><text y="314.2" x="682">90%</text><text y="283.2" text-anchor="end" x="71">20%</text><text y="283.2" x="682">80%</text><text y="252.2" text-anchor="end" x="71">30%</text><text y="252.2" x="682">70%</text><text y="221.2" text-anchor="end" x="71">40%</text><text y="221.2" x="682">60%</text><text y="190.2" text-anchor="end" x="71">50%</text><text y="190.2" x="682">50%</text><text y="159.2" text-anchor="end" x="71">60%</text><text y="159.2" x="682">40%</text><text y="128.2" text-anchor="end" x="71">70%</text><text y="128.2" x="682">30%</text><text y="97.2" text-anchor="end" x="71">80%</text><text y="97.2" x="682">20%</text><text y="66.2" text-anchor="end" x="71">90%</text><text y="66.2" x="682">10%</text><text y="35.2" text-anchor="end" x="71">100%</text><text y="35.2" x="682">0%</text></g><g font-family="sans-serif" text-decoration="none" font-style="normal" font-size="15" font-weight="normal"><g font-family="sans-serif" stroke="none" text-decoration="none" font-style="normal" font-size="15" font-weight="normal"><g stroke-width="4" stroke="#fff" opacity="0.4" fill="#fff" stroke-linejoin="bevel"><text y="107.5" text-anchor="middle" x="637.5">12月7日</text><text y="125" text-anchor="middle" x="637.5">67%</text></g><text y="107.5" text-anchor="middle" x="637.5">12月7日</text><text y="125" text-anchor="middle" x="637.5">67%</text></g></g><circle stroke="none" cy="131.5" cx="637.5" r="2" fill="#000"></circle><g font-family="sans-serif" text-decoration="none" font-style="normal" font-size="15" font-weight="normal"><g font-family="sans-serif" stroke="none" text-decoration="none" font-style="normal" font-size="15" font-weight="normal"><g stroke-width="4" stroke="#fff" opacity="0.4" fill="#fff" stroke-linejoin="bevel"><text y="261.4" text-anchor="middle" x="358.3">6月21日</text><text y="278.8" text-anchor="middle" x="358.3">18%</text></g><text y="261.4" text-anchor="middle" x="358.3">6月21日</text><text y="278.8" text-anchor="middle" x="358.3">18%</text></g></g><circle stroke="none" cy="285.4" cx="358.3" r="2" fill="#000"></circle><g font-family="sans-serif" text-decoration="none" font-style="normal" font-size="15" font-weight="normal"><g font-family="sans-serif" stroke="none" text-decoration="none" font-style="normal" font-size="15" font-weight="normal"><g stroke-width="4" stroke="#fff" opacity="0.4" fill="#fff" stroke-linejoin="bevel"><text y="185" text-anchor="middle" x="504">9月17日</text><text y="202.5" text-anchor="middle" x="504">42%</text></g><text y="185" text-anchor="middle" x="504">9月17日</text><text y="202.5" text-anchor="middle" x="504">42%</text></g></g><circle stroke="none" cy="209" cx="504" r="2" fill="#000"></circle><g font-family="sans-serif" text-decoration="none" font-style="normal" font-size="15" font-weight="normal"><g font-family="sans-serif" stroke="none" text-decoration="none" font-style="normal" font-size="15" font-weight="normal"><g stroke-width="4" stroke="#fff" opacity="0.4" fill="#fff" stroke-linejoin="bevel"><text y="183.5" text-anchor="middle" x="261.9">4月24日</text><text y="200.9" text-anchor="middle" x="261.9">43%</text></g><text y="183.5" text-anchor="middle" x="261.9">4月24日</text><text y="200.9" text-anchor="middle" x="261.9">43%</text></g></g><circle stroke="none" cy="207.5" cx="261.9" r="2" fill="#000"></circle><g font-family="sans-serif" text-decoration="none" font-style="normal" font-size="15" font-weight="normal"><text font-family="sans-serif" stroke="none" opacity="0.8" y="307.9" text-decoration="none" text-anchor="middle" x="181.1" font-style="normal" font-size="15" fill="#fff" font-weight="normal">晴</text></g><g font-family="sans-serif" text-decoration="none" font-style="normal" font-size="15" font-weight="normal"><text font-family="sans-serif" stroke="none" opacity="0.8" y="247.6" text-decoration="none" text-anchor="middle" x="620" font-style="normal" font-size="15" fill="#fff" font-weight="normal">晴時多雲</text></g><g font-family="sans-serif" text-decoration="none" font-style="normal" font-size="15" font-weight="normal"><text font-family="sans-serif" stroke="none" opacity="0.8" y="175.4" text-decoration="none" text-anchor="middle" x="632.1" font-style="normal" font-size="15" fill="#fff" font-weight="normal">多雲</text></g><g font-family="sans-serif" text-decoration="none" font-style="normal" font-size="15" font-weight="normal"><text font-family="sans-serif" stroke="none" opacity="0.8" y="125.3" text-decoration="none" text-anchor="middle" x="145" font-style="normal" font-size="15" fill="#fff" font-weight="normal">多雲時陰</text></g><g font-family="sans-serif" text-decoration="none" font-style="normal" font-size="15" font-weight="normal"><text font-family="sans-serif" stroke="none" opacity="0.8" y="133.6" text-decoration="none" text-anchor="middle" x="355.5" font-style="normal" font-size="15" fill="#fff" font-weight="normal">陰天</text></g></svg>